#N canvas 682 62 678 651 10;
#X obj 167 554 else/out~;
#X obj 114 74 else/keyboard 17 80 3 3 0 0 empty empty;
#X obj 267 468 else/bend.out -raw;
#X floatatom 267 440 0 0 0 0 - - -;
#X obj 270 413 hsl 128 15 0 16383 0 0 empty empty empty -2 -8 0 10
-228856 -1 -1 4600 1;
#X obj 203 339 tgl 15 0 empty empty empty 17 7 0 10 -262144 -1 -1 0
127;
#X obj 164 518 ./fluidsynth~ sf2/Famicom.sf2, f 16;
#X msg 200 366 60 \$1 1;
#X obj 488 315 bng 15 250 50 0 empty empty empty 17 7 0 10 -262144
-1 -1;
#X floatatom 505 378 5 0 0 0 - - -;
#X msg 175 304 144 \, 60 \, \$1;
#X obj 180 276 tgl 15 0 empty empty empty 17 7 0 10 -262144 -1 -1 0
127;
#X text 215 202 <= should not send note off (group 128);
#X obj 489 342 else/hex2dec 0xE0;
#X obj 108 202 else/note.out 1;
#X connect 1 0 14 0;
#X connect 2 0 6 0;
#X connect 3 0 2 0;
#X connect 4 0 3 0;
#X connect 5 0 7 0;
#X connect 6 0 0 0;
#X connect 6 1 0 1;
#X connect 7 0 6 0;
#X connect 8 0 13 0;
#X connect 10 0 6 0;
#X connect 11 0 10 0;
#X connect 13 0 9 0;
#X connect 14 0 6 0;
