#N canvas 682 62 678 651 10;
#X obj 167 554 else/out~;
#X obj 114 74 else/keyboard 17 80 3 3 0 0 empty empty;
#X obj 267 468 else/bend.out -raw;
#X floatatom 267 440 0 0 0 0 - - -;
#X obj 270 413 hsl 128 15 0 16383 0 0 empty empty empty -2 -8 0 10
-228856 -1 -1 0 1;
#X obj 108 202 else/note.out;
#X obj 203 339 tgl 15 0 empty empty empty 17 7 0 10 -262144 -1 -1 0
127;
#X obj 164 518 ./fluidsynth~ sf2/Famicom.sf2, f 16;
#X msg 200 366 60 \$1 1;
#X obj 489 342 else/hex2dec 0x80;
#X obj 488 315 bng 15 250 50 0 empty empty empty 17 7 0 10 -262144
-1 -1;
#X floatatom 505 378 5 0 0 0 - - -;
#X obj 175 255 print;
#X msg 175 304 128 \, 60 \, 0;
#X connect 1 0 5 0;
#X connect 2 0 7 0;
#X connect 3 0 2 0;
#X connect 4 0 3 0;
#X connect 5 0 7 0;
#X connect 5 0 12 0;
#X connect 6 0 8 0;
#X connect 7 0 0 0;
#X connect 7 1 0 1;
#X connect 8 0 7 0;
#X connect 9 0 11 0;
#X connect 10 0 9 0;
#X connect 13 0 7 0;
