#N canvas 402 23 736 708 12;
#X obj 339 112 retune;
#X obj 123 397 +;
#X obj 239 469 f;
#X obj 277 482 + 1;
#X obj 123 309 t f b;
#X obj 123 77 until;
#X obj 411 178 array define \$0-scale;
#X obj 322 448 else/buffer \$0-scale;
#X obj 275 563 s \$0-done;
#X obj 123 133 array size \$0-scale, f 9;
#X obj 123 212 else/loop;
#X obj 123 265 tabread \$0-scale, f 9;
#X obj 95 12 bng 15 250 50 0 empty empty empty 17 7 0 10 #fcfcfc #000000
#000000;
#X obj 123 42 t b b, f 21;
#X obj 37 44 r \$0-done;
#X msg 37 82 pause;
#X obj 123 104 t b b, f 12;
#X obj 147 470 v sum_\$0;
#X obj 204 263 v sum_\$0;
#X msg 322 412 0 171.429 342.857 514.286 685.714 857.143 1028.57 1200
;
#X obj 123 184 - 1;
#X obj 123 239 + 1;
#X obj 267 327 t f b;
#X msg 299 366 0;
#N canvas 47 74 489 581 init 0;
#X obj 167 277 else/wrap2 0 7;
#X obj 172 452 +;
#X obj 141 359 tabread \$0-scale, f 9;
#X obj 214 248 div 7;
#X obj 168 159 t f f b;
#X obj 262 156 array size \$0-scale, f 9;
#X obj 262 215 - 1;
#X obj 169 34 inlet;
#X obj 169 134 * -1;
#X obj 169 58 t f f;
#X obj 393 170 * 100;
#X obj 216 421 +;
#X obj 354 300 tabread \$0-scale, f 9;
#X obj 217 353 *;
#X obj 172 492 outlet;
#X connect 0 0 2 0;
#X connect 1 0 14 0;
#X connect 2 0 1 0;
#X connect 3 0 13 0;
#X connect 4 0 0 0;
#X connect 4 1 3 0;
#X connect 4 2 5 0;
#X connect 5 0 6 0;
#X connect 6 0 3 1;
#X connect 6 0 0 2;
#X connect 6 0 12 0;
#X connect 7 0 9 0;
#X connect 8 0 4 0;
#X connect 9 0 8 0;
#X connect 9 1 10 0;
#X connect 10 0 11 1;
#X connect 11 0 1 1;
#X connect 12 0 13 1;
#X connect 13 0 11 0;
#X restore 52 391 pd init;
#X msg 510 301 2 24;
#X msg 499 278 3 13;
#X text 523 252 equal temperament;
#X text 533 279 bohlen-pierce;
#X text 546 300 quarter tones;
#X obj 456 285 bng 18 250 50 0 empty empty empty 17 7 0 10 #dcdcdc
#000000 #000000;
#X obj 487 329 else/eqdiv 2 7;
#X obj 267 291 f 60;
#X msg 302 267 57;
#X msg 292 243 60;
#X obj 123 548 tabwrite \$0-remap;
#X obj 265 591 array get \$0-remap;
#X obj 549 359 loadbang;
#X obj 265 663 outlet;
#X obj 123 9 inlet;
#X obj 265 624 else/insert remap;
#X obj 410 204 array define \$0-remap 128;
#X obj 265 533 sel 128;
#X msg 487 252 2 48;
#X obj 52 467 / 100;
#X obj 52 502 expr if($f1 < 0 \, -1 \, if($f1 > 127 \, 128 \, $f1))
, f 24;
#X text 400 604 works between 0 and 127;
#X connect 1 0 17 0;
#X connect 1 0 44 0;
#X connect 2 0 3 0;
#X connect 2 0 35 1;
#X connect 2 0 42 0;
#X connect 3 0 2 1;
#X connect 4 0 1 0;
#X connect 4 1 2 0;
#X connect 5 0 16 0;
#X connect 9 0 20 0;
#X connect 10 0 21 0;
#X connect 11 0 4 0;
#X connect 12 0 13 0;
#X connect 13 0 5 0;
#X connect 13 1 32 0;
#X connect 14 0 15 0;
#X connect 14 0 5 1;
#X connect 15 0 10 0;
#X connect 16 0 9 0;
#X connect 16 1 18 0;
#X connect 18 0 1 1;
#X connect 19 0 7 1;
#X connect 20 0 10 0;
#X connect 21 0 11 0;
#X connect 22 0 24 0;
#X connect 22 1 23 0;
#X connect 23 0 2 0;
#X connect 24 0 17 0;
#X connect 24 0 44 0;
#X connect 25 0 31 0;
#X connect 26 0 31 0;
#X connect 30 0 31 0;
#X connect 31 0 7 1;
#X connect 32 0 22 0;
#X connect 33 0 32 1;
#X connect 34 0 32 1;
#X connect 36 0 40 0;
#X connect 37 0 25 0;
#X connect 39 0 13 0;
#X connect 40 0 38 0;
#X connect 42 0 8 0;
#X connect 42 0 36 0;
#X connect 43 0 31 0;
#X connect 44 0 45 0;
#X connect 45 0 35 0;
