#N canvas 258 23 918 695 12;
#X obj 156 123 retune;
#X obj 304 407 +;
#X obj 420 509 f;
#X obj 451 534 + 1;
#X obj 304 309 t f b;
#X obj 304 91 until;
#X obj 592 324 array define \$0-scale;
#X obj 503 558 else/buffer \$0-scale;
#X obj 446 583 sel 127;
#X obj 446 617 s \$0-done;
#X obj 523 82 r \$0-done;
#X obj 304 153 array size \$0-scale, f 9;
#X obj 304 232 else/loop;
#X obj 304 268 tabread \$0-scale, f 9;
#X obj 304 26 bng 15 250 50 0 empty empty empty 17 7 0 10 #fcfcfc #000000
#000000;
#X obj 304 56 t b b, f 21;
#X obj 218 58 r \$0-done;
#X msg 218 102 pause;
#X obj 304 124 t b b, f 12;
#X obj 322 525 v sum_\$0;
#X obj 385 270 v sum_\$0;
#X msg 503 522 0 171.429 342.857 514.286 685.714 857.143 1028.57 1200
;
#X obj 304 204 - 1;
#X obj 271 248 + 1;
#X obj 448 333 t f b;
#X msg 480 372 0;
#N canvas 47 74 489 581 init 0;
#X obj 167 277 else/wrap2 0 7;
#X obj 172 452 +;
#X obj 141 359 tabread \$0-scale, f 9;
#X obj 214 248 div 7;
#X obj 168 159 t f f b;
#X obj 262 156 array size \$0-scale, f 9;
#X obj 262 215 - 1;
#X obj 169 34 inlet;
#X obj 169 134 * -1;
#X obj 169 58 t f f;
#X obj 393 170 * 100;
#X obj 216 421 +;
#X obj 354 300 tabread \$0-scale, f 9;
#X obj 217 353 *;
#X obj 172 492 outlet;
#X connect 0 0 2 0;
#X connect 1 0 14 0;
#X connect 2 0 1 0;
#X connect 3 0 13 0;
#X connect 4 0 0 0;
#X connect 4 1 3 0;
#X connect 4 2 5 0;
#X connect 5 0 6 0;
#X connect 6 0 3 1;
#X connect 6 0 0 2;
#X connect 6 0 12 0;
#X connect 7 0 9 0;
#X connect 8 0 4 0;
#X connect 9 0 8 0;
#X connect 9 1 10 0;
#X connect 10 0 11 1;
#X connect 11 0 1 1;
#X connect 12 0 13 1;
#X connect 13 0 11 0;
#X restore 233 401 pd init;
#X obj 135 450 v sum_\$0;
#X obj 505 490 loadbang;
#X obj 559 408 eqdiv;
#X msg 668 362 2 12;
#X msg 691 411 2 24;
#X msg 680 388 3 13;
#X text 704 362 equal temperament;
#X text 714 389 bohlen-pierce;
#X text 727 410 quarter tones;
#X obj 637 395 bng 18 250 50 0 empty empty empty 17 7 0 10 #dcdcdc
#000000 #000000;
#X obj 668 439 else/eqdiv 2 7;
#X obj 447 297 f 60;
#X msg 485 273 57;
#X msg 475 249 60;
#X obj 591 214 array define \$0-remap 128;
#X obj 304 558 tabwrite \$0-remap;
#X obj 291 648 print;
#X obj 283 619 array get \$0-remap;
#X obj 178 507 r \$0-done;
#X obj 730 469 loadbang;
#X connect 1 0 19 0;
#X connect 1 0 42 0;
#X connect 2 0 3 0;
#X connect 2 0 8 0;
#X connect 2 0 42 1;
#X connect 3 0 2 1;
#X connect 4 0 1 0;
#X connect 4 1 2 0;
#X connect 5 0 18 0;
#X connect 8 0 9 0;
#X connect 8 0 44 0;
#X connect 11 0 22 0;
#X connect 12 0 23 0;
#X connect 13 0 4 0;
#X connect 14 0 15 0;
#X connect 15 0 5 0;
#X connect 15 1 38 0;
#X connect 16 0 17 0;
#X connect 16 0 5 1;
#X connect 17 0 12 0;
#X connect 18 0 11 0;
#X connect 18 1 20 0;
#X connect 20 0 1 1;
#X connect 21 0 7 1;
#X connect 22 0 12 0;
#X connect 23 0 13 0;
#X connect 24 0 26 0;
#X connect 24 1 25 0;
#X connect 25 0 2 0;
#X connect 26 0 19 0;
#X connect 26 0 42 0;
#X connect 30 0 37 0;
#X connect 31 0 37 0;
#X connect 32 0 37 0;
#X connect 36 0 37 0;
#X connect 37 0 7 1;
#X connect 38 0 24 0;
#X connect 39 0 38 1;
#X connect 40 0 38 1;
#X connect 44 0 43 0;
#X connect 46 0 31 0;
